HIERARCHY
ROOT Hips
{
	OFFSET -0.001795 -0.223333 0.028219
	CHANNELS 6 Xposition Yposition Zposition Zrotation Yrotation Xrotation 
	JOINT LeftUpLeg
	{
		OFFSET 0.069520 -0.091406 -0.006815
		CHANNELS 3 Zrotation Yrotation Xrotation
		JOINT LeftLeg
		{
			OFFSET 0.034277 -0.375199 -0.004496
			CHANNELS 3 Zrotation Yrotation Xrotation
			JOINT LeftFoot
			{
				OFFSET -0.013596 -0.397961 -0.043693
				CHANNELS 3 Zrotation Yrotation Xrotation
				JOINT LeftToe
				{
					OFFSET 0.026358 -0.055791 0.119288
					CHANNELS 3 Zrotation Yrotation Xrotation
					End Site
					{
						OFFSET 0.000000 0.000000 0.000000
					}
				}
			}
		}
	}
	JOINT RightUpLeg
	{
		OFFSET -0.067670 -0.090522 -0.004320
		CHANNELS 3 Zrotation Yrotation Xrotation
		JOINT RightLeg
		{
			OFFSET -0.038290 -0.382569 -0.008850
			CHANNELS 3 Zrotation Yrotation Xrotation
			JOINT RightFoot
			{
				OFFSET 0.015774 -0.398415 -0.042312
				CHANNELS 3 Zrotation Yrotation Xrotation
				JOINT RightToe
				{
					OFFSET -0.025372 -0.048144 0.123348
					CHANNELS 3 Zrotation Yrotation Xrotation
					End Site
					{
						OFFSET 0.000000 0.000000 0.000000
					}
				}
			}
		}
	}
	JOINT Spine
	{
		OFFSET -0.002533 0.108963 -0.026696
		CHANNELS 3 Zrotation Yrotation Xrotation
		JOINT Spine1
		{
			OFFSET 0.005487 0.135180 0.001092
			CHANNELS 3 Zrotation Yrotation Xrotation
			JOINT Spine2
			{
				OFFSET 0.001457 0.052922 0.025425
				CHANNELS 3 Zrotation Yrotation Xrotation
				JOINT Neck
				{
					OFFSET -0.002778 0.213870 -0.042857
					CHANNELS 3 Zrotation Yrotation Xrotation
					JOINT Head
					{
						OFFSET 0.005152 0.064970 0.051349
						CHANNELS 3 Zrotation Yrotation Xrotation
						End Site
						{
							OFFSET 0.000000 0.000000 0.000000
						}
					}
				}
				JOINT LeftShoulder
				{
					OFFSET 0.078845 0.121749 -0.034090
					CHANNELS 3 Zrotation Yrotation Xrotation
					JOINT LeftArm
					{
						OFFSET 0.090977 0.030469 -0.008868
						CHANNELS 3 Zrotation Yrotation Xrotation
						JOINT LeftForeArm
						{
							OFFSET 0.259612 -0.012772 -0.027456
							CHANNELS 3 Zrotation Yrotation Xrotation
							JOINT LeftHand
							{
								OFFSET 0.249234 0.008986 -0.001171
								CHANNELS 3 Zrotation Yrotation Xrotation
								End Site
								{
									OFFSET 0.000000 0.000000 0.000000
								}
							}
						}
					}
				}
				JOINT RightShoulder
				{
					OFFSET -0.081759 0.118833 -0.038615
					CHANNELS 3 Zrotation Yrotation Xrotation
					JOINT RightArm
					{
						OFFSET -0.096012 0.032551 -0.009143
						CHANNELS 3 Zrotation Yrotation Xrotation
						JOINT RightForeArm
						{
							OFFSET -0.253742 -0.013329 -0.021401
							CHANNELS 3 Zrotation Yrotation Xrotation
							JOINT RightHand
							{
								OFFSET -0.255298 0.007772 -0.005559
								CHANNELS 3 Zrotation Yrotation Xrotation
								End Site
								{
									OFFSET 0.000000 0.000000 0.000000
								}
							}
						}
					}
				}
			}
		}
	}
}
MOTION
Frames: 13
Frame Time: 0.050000
0.000000 0.938726 0.000000 0.056729 -1.765547 5.752756 5.804442 -0.237197 -2.686093 1.154936 0.017030 -3.286386 4.082603 11.075532 12.289448 0.000000 0.000000 0.000000 -4.445087 0.415427 -3.852544 -3.824521 -0.087090 -6.533119 8.499903 5.976751 21.022357 0.000000 0.000000 0.000000 5.351750 0.104734 -2.807311 -2.741443 1.284235 -1.253138 -4.498807 3.996300 -0.508382 5.009671 -2.841996 -6.381035 0.000000 0.000000 0.000000 -19.624798 -2.389826 -1.851850 -51.887249 -5.342907 -3.166427 -7.417433 -15.956362 1.481684 0.000000 0.000000 0.000000 17.778137 -4.625665 -3.340450 60.552438 5.164187 -2.657135 5.882489 18.345788 1.526273 0.000000 0.000000 0.000000 
0.000202 0.938166 0.000067 -0.016112 -2.492466 6.296724 5.590414 -0.210876 -2.069121 1.521476 0.075933 -5.144436 4.384758 11.551865 12.775584 0.000000 0.000000 0.000000 -4.331971 0.480044 -4.719631 -4.007958 -0.066566 -6.308713 8.795488 6.388716 20.912063 0.000000 0.000000 0.000000 6.609626 0.122861 -3.075615 -3.497320 1.615897 -1.877142 -5.636188 4.656592 -0.841775 4.959474 -2.665003 -7.057979 0.000000 0.000000 0.000000 -19.975287 -1.695742 -2.421890 -50.886146 -5.445766 -2.980209 -8.046766 -15.747594 1.529804 0.000000 0.000000 0.000000 17.516224 -5.964393 -3.923627 61.984233 4.615296 -2.905063 6.183885 17.900138 1.539791 0.000000 0.000000 0.000000 
0.000319 0.938305 -0.000081 0.411786 -2.183483 6.290707 5.179979 -0.236456 -2.575013 1.457116 0.045763 -4.418516 4.234513 11.331600 12.668994 0.000000 0.000000 0.000000 -4.765218 0.495930 -5.017280 -4.070518 -0.016019 -5.674785 8.529284 6.195284 20.569900 0.000000 0.000000 0.000000 6.178273 0.094130 -2.802395 -3.075333 1.409547 -3.168964 -6.140570 4.129073 -0.422255 4.470206 -2.536559 -5.844859 0.000000 0.000000 0.000000 -19.743701 -1.762733 -2.261187 -51.000571 -5.172471 -3.168300 -7.229716 -14.684891 1.337476 0.000000 0.000000 0.000000 18.559012 -4.998647 -3.564028 60.440936 4.324973 -3.105861 6.622850 18.198489 1.624967 0.000000 0.000000 0.000000 
0.000353 0.938163 -0.000224 0.568406 -2.059336 6.630996 5.348021 -0.253641 -2.831168 0.879481 0.099991 -4.705057 4.152372 11.224310 12.739583 0.000000 0.000000 0.000000 -4.979644 0.536162 -5.665927 -4.007045 0.019335 -5.145323 8.370254 6.090448 20.336168 0.000000 0.000000 0.000000 6.360306 0.088125 -2.829903 -3.596910 1.643362 -2.818713 -6.017600 3.253819 -1.887776 3.614261 -2.137483 -4.513545 0.000000 0.000000 0.000000 -19.398486 -1.099822 -2.415488 -51.589576 -5.896684 -2.805704 -6.102028 -13.669392 1.121699 0.000000 0.000000 0.000000 17.159346 -5.129479 -3.682121 61.039091 3.874749 -3.152544 7.812650 18.505927 1.789759 0.000000 0.000000 0.000000 
0.000297 0.938740 -0.000403 0.836807 -1.579561 6.615677 4.906058 -0.265519 -2.962382 1.229706 0.074825 -4.665977 3.863389 10.847920 12.894853 0.000000 0.000000 0.000000 -5.138032 0.534171 -5.739311 -4.196881 0.057107 -4.815043 8.103077 5.761013 20.288403 0.000000 0.000000 0.000000 5.991995 0.087103 -2.826848 -3.284074 1.507053 -2.929023 -6.333372 2.965577 -1.990855 3.226579 -1.836316 -4.643553 0.000000 0.000000 0.000000 -19.377841 -1.281067 -2.336971 -51.353450 -6.436390 -2.545409 -6.056432 -12.800461 1.045772 0.000000 0.000000 0.000000 17.125535 -5.354147 -3.786208 60.696185 3.616715 -3.250528 8.353862 18.667712 1.889146 0.000000 0.000000 0.000000 
0.000265 0.939198 -0.000489 0.972673 -1.586844 6.907897 4.866134 -0.273725 -3.059247 1.036490 0.106954 -5.088394 3.806516 10.810393 13.210855 0.000000 0.000000 0.000000 -5.226122 0.547957 -5.934993 -4.313510 0.045134 -5.055129 8.132984 5.692458 20.517967 0.000000 0.000000 0.000000 5.894529 0.099670 -3.017308 -3.397160 1.551449 -3.208741 -6.347270 2.893752 -2.188106 3.306269 -1.925250 -4.421726 0.000000 0.000000 0.000000 -19.570891 -1.019836 -2.494130 -51.101728 -6.793004 -2.356196 -5.268697 -12.001128 0.901685 0.000000 0.000000 0.000000 16.635184 -5.373202 -3.756687 61.133826 3.486518 -3.297158 8.153458 18.394468 1.823014 0.000000 0.000000 0.000000 
0.000244 0.939508 -0.000558 1.096273 -1.375825 6.860212 4.648581 -0.269092 -2.926450 1.217108 0.106384 -5.324470 3.654646 10.620611 13.351230 0.000000 0.000000 0.000000 -5.295851 0.533085 -5.725150 -4.404235 0.035500 -5.263069 8.052072 5.544480 20.619815 0.000000 0.000000 0.000000 5.681329 0.093019 -2.940656 -3.422387 1.566043 -3.064294 -6.392125 2.510416 -2.447171 3.425650 -1.963712 -4.768269 0.000000 0.000000 0.000000 -19.689547 -0.862338 -2.543507 -50.867400 -6.718604 -2.357319 -5.005175 -11.918782 0.871871 0.000000 0.000000 0.000000 16.661133 -5.264352 -3.757287 61.067866 3.118398 -3.460836 8.127837 18.459422 1.815521 0.000000 0.000000 0.000000 
0.000284 0.939751 -0.000641 1.202638 -1.180399 6.866277 4.375845 -0.272779 -2.957366 1.520873 0.089918 -5.368118 3.533749 10.470164 13.434602 0.000000 0.000000 0.000000 -5.400568 0.529358 -5.707839 -4.410138 0.039082 -5.235776 7.955786 5.406170 20.655324 0.000000 0.000000 0.000000 5.596587 0.084546 -2.861980 -3.462838 1.585681 -2.995159 -6.689013 2.561810 -2.721987 3.360859 -1.930807 -4.612591 0.000000 0.000000 0.000000 -19.640572 -0.927772 -2.571841 -50.700113 -6.985763 -2.197797 -4.682245 -11.560169 0.810256 0.000000 0.000000 0.000000 16.663032 -5.471583 -3.824038 61.273036 2.921771 -3.535989 7.874254 18.036498 1.736752 0.000000 0.000000 0.000000 
0.000291 0.939715 -0.000771 1.316810 -1.068195 6.860580 4.194644 -0.279565 -3.065546 1.639335 0.075835 -5.226754 3.478837 10.393754 13.404301 0.000000 0.000000 0.000000 -5.435190 0.526726 -5.688307 -4.566319 0.049110 -5.227031 7.877269 5.336705 20.578889 0.000000 0.000000 0.000000 5.522357 0.083202 -2.849254 -3.594958 1.642775 -3.098944 -6.665327 2.589786 -2.709443 3.097303 -1.750788 -4.545988 0.000000 0.000000 0.000000 -19.364243 -0.915113 -2.554490 -50.832704 -7.279815 -2.086051 -4.458717 -10.935154 0.745685 0.000000 0.000000 0.000000 16.602031 -5.538308 -3.835730 61.173782 2.739749 -3.622389 7.649911 17.602537 1.660190 0.000000 0.000000 0.000000 
0.000273 0.939802 -0.000917 1.430639 -0.906447 6.879888 4.086428 -0.290876 -3.243108 1.640398 0.066390 -5.029138 3.396842 10.281321 13.384602 0.000000 0.000000 0.000000 -5.664373 0.519945 -5.620043 -4.361145 0.029930 -5.335696 7.798135 5.225521 20.604575 0.000000 0.000000 0.000000 5.582444 0.089315 -2.931700 -3.886383 1.768593 -3.238570 -6.770192 2.642888 -2.517091 2.880375 -1.549300 -4.859259 0.000000 0.000000 0.000000 -19.374830 -1.141143 -2.471277 -50.617950 -7.955313 -1.799446 -4.098848 -10.179218 0.663547 0.000000 0.000000 0.000000 16.772511 -5.586538 -3.846220 60.968079 2.859786 -3.569992 7.558313 17.071792 1.596725 0.000000 0.000000 0.000000 
0.000275 0.939923 -0.001075 1.493922 -0.830036 6.830704 4.053306 -0.290534 -3.234756 1.587158 0.068382 -4.996677 3.345338 10.212717 13.403750 0.000000 0.000000 0.000000 -5.868412 0.519971 -5.686580 -4.109559 0.033875 -5.104502 7.748897 5.178784 20.568361 0.000000 0.000000 0.000000 5.630392 0.084700 -2.876276 -3.968022 1.803933 -3.295598 -6.886360 2.703330 -2.384423 2.827812 -1.511779 -4.841409 0.000000 0.000000 0.000000 -19.449560 -1.550544 -2.296409 -50.474439 -8.306911 -1.647064 -4.092970 -9.935927 0.647252 0.000000 0.000000 0.000000 16.646339 -5.425759 -3.720504 61.222450 3.096805 -3.468881 7.331359 16.797871 1.541557 0.000000 0.000000 0.000000 
0.000342 0.939994 -0.001221 1.593394 -0.452546 6.866551 4.107759 -0.294943 -3.264513 1.356777 0.091533 -5.162116 3.129424 9.924069 13.423425 0.000000 0.000000 0.000000 -6.124129 0.515613 -5.738062 -3.814987 0.031178 -4.933925 7.539500 4.938212 20.510327 0.000000 0.000000 0.000000 5.543144 0.109143 -3.171202 -3.917076 1.787067 -3.132302 -6.918948 2.546828 -2.241107 2.630059 -1.351736 -4.976129 0.000000 0.000000 0.000000 -19.421588 -2.146972 -1.987180 -50.631792 -8.945995 -1.392334 -4.172012 -9.702325 0.639890 0.000000 0.000000 0.000000 16.523191 -5.132703 -3.543999 61.373667 3.296141 -3.381855 7.276610 17.031178 1.560319 0.000000 0.000000 0.000000 
0.000454 0.940083 -0.001350 1.616070 -0.243641 6.806323 4.077417 -0.293372 -3.222275 1.388469 0.091838 -5.204924 3.013614 9.767040 13.417580 0.000000 0.000000 0.000000 -6.189978 0.514496 -5.817115 -3.728721 0.051665 -4.596952 7.416827 4.814488 20.432909 0.000000 0.000000 0.000000 5.563812 0.122280 -3.317636 -3.888253 1.777363 -3.047394 -6.887866 2.505525 -2.215886 2.493722 -1.255536 -4.961246 0.000000 0.000000 0.000000 -19.396287 -2.602342 -1.759357 -50.768961 -9.325472 -1.235475 -4.556852 -9.733888 0.673673 0.000000 0.000000 0.000000 16.460993 -4.886210 -3.397883 61.353059 3.451157 -3.302796 7.164548 17.348264 1.580490 0.000000 0.000000 0.000000 
